<svg xmlns="http://www.w3.org/2000/svg"><style>:root svg:not(:target){display:none}</style><svg id="arrow-before" viewBox="0 0 11 20"><path fill-rule="evenodd" clip-rule="evenodd" d="M9.717 0 11 1.32 2.567 10 11 18.68 9.717 20 0 10 9.717 0Z"></path></svg><svg id="arrow-next" viewBox="0 0 11 20"><path fill-rule="evenodd" clip-rule="evenodd" d="M1.283 0 0 1.32 8.433 10 0 18.68 1.283 20 11 10 1.283 0Z"></path></svg><svg id="basket" viewBox="0 0 16 16"><path fill-rule="evenodd" clip-rule="evenodd" d="m5.66 3.875.234 2.792h4.213l.232-2.792a2.347 2.347 0 1 0-4.678 0Zm5.784 2.792.224-2.68a3.68 3.68 0 1 0-7.336 0l.224 2.68H0L.19 8l.816 5.71A2.667 2.667 0 0 0 3.646 16h8.708a2.667 2.667 0 0 0 2.64-2.29L15.81 8 16 6.667h-4.556ZM11.334 8h-.054l-.222 2.667h3.024L14.462 8h-3.129ZM9.941 8H6.058l.222 2.667h3.44L9.942 8ZM4.72 8H1.537l.381 2.667h3.024L4.72 8Zm1.893 6.667L6.391 12H9.61l-.222 2.667H6.613ZM10.947 12l-.222 2.667h1.629c.663 0 1.226-.488 1.32-1.145L13.89 12h-2.944Zm-5.894 0 .222 2.667H3.646a1.333 1.333 0 0 1-1.32-1.145L2.11 12h2.944Z"></path></svg><svg id="copyright" viewBox="0 0 112 16"><path d="M9.173 3.6V12h-.876V8.124H3.041V12h-.888V3.6h.888v3.744h5.256V3.6h.876Zm4.374.768h-2.952V3.6h6.792v.768h-2.952V12h-.888V4.368ZM27.529 3.6V12h-.852V5.28l-3.3 5.652h-.42l-3.3-5.616V12h-.852V3.6h.733l3.648 6.228L26.797 3.6h.732Zm2.737 0h.888v7.632h4.704V12h-5.592V3.6Zm15.476 6.156h-4.68L40.053 12h-.925l3.84-8.4h.877l3.84 8.4h-.937l-1.008-2.244Zm-.325-.72-2.016-4.512-2.016 4.512h4.032Zm6.035 3.024a3.436 3.436 0 0 1-1.68-.408 2.976 2.976 0 0 1-1.152-1.14 3.333 3.333 0 0 1-.42-1.668c0-.616.14-1.168.42-1.656.28-.488.664-.868 1.152-1.14a3.436 3.436 0 0 1 1.68-.408c.544 0 1.028.108 1.452.324.432.208.772.516 1.02.924l-.636.432a1.945 1.945 0 0 0-.792-.696c-.32-.16-.668-.24-1.044-.24-.456 0-.868.104-1.236.312-.36.2-.644.488-.852.864-.2.376-.3.804-.3 1.284 0 .488.1.92.3 1.296.208.368.492.656.852.864.368.2.78.3 1.236.3.376 0 .724-.076 1.044-.228.32-.152.584-.384.792-.696l.636.432c-.248.408-.588.72-1.02.936a3.304 3.304 0 0 1-1.452.312Zm6.354-6.42c.824 0 1.456.208 1.896.624.44.408.66 1.016.66 1.824V12h-.816v-.984a1.947 1.947 0 0 1-.852.768c-.368.184-.808.276-1.32.276-.704 0-1.264-.168-1.68-.504-.416-.336-.624-.78-.624-1.332 0-.536.192-.968.576-1.296.392-.328 1.012-.492 1.86-.492h2.004v-.384c0-.544-.152-.956-.456-1.236-.304-.288-.748-.432-1.332-.432-.4 0-.784.068-1.152.204a2.822 2.822 0 0 0-.948.54l-.384-.636c.32-.272.704-.48 1.152-.624.448-.152.92-.228 1.416-.228Zm-.3 5.748c.48 0 .892-.108 1.236-.324.344-.224.6-.544.768-.96V9.072h-1.98c-1.08 0-1.62.376-1.62 1.128 0 .368.14.66.42.876.28.208.672.312 1.176.312ZM68.46 3.096V12h-.816v-1.248a2.587 2.587 0 0 1-1.02.972 2.939 2.939 0 0 1-1.416.336 3.204 3.204 0 0 1-1.608-.408 2.916 2.916 0 0 1-1.128-1.14c-.272-.488-.408-1.044-.408-1.668 0-.624.136-1.18.408-1.668A2.834 2.834 0 0 1 63.6 6.048a3.204 3.204 0 0 1 1.608-.408c.512 0 .972.108 1.38.324a2.57 2.57 0 0 1 1.02.924V3.096h.852Zm-3.18 8.208c.44 0 .836-.1 1.188-.3.36-.208.64-.5.84-.876.208-.376.312-.804.312-1.284s-.104-.908-.312-1.284c-.2-.376-.48-.664-.84-.864a2.29 2.29 0 0 0-1.188-.312c-.448 0-.852.104-1.212.312-.352.2-.632.488-.84.864-.2.376-.3.804-.3 1.284s.1.908.3 1.284c.208.376.488.668.84.876.36.2.764.3 1.212.3Zm11.049-2.196h-5.28c.047.656.3 1.188.755 1.596.456.4 1.032.6 1.728.6.392 0 .752-.068 1.08-.204.329-.144.613-.352.853-.624l.48.552c-.28.336-.632.592-1.056.768a3.507 3.507 0 0 1-1.38.264c-.648 0-1.225-.136-1.728-.408a3.038 3.038 0 0 1-1.165-1.152 3.267 3.267 0 0 1-.42-1.656c0-.616.133-1.168.397-1.656.272-.488.64-.868 1.103-1.14.472-.272 1-.408 1.585-.408a3.05 3.05 0 0 1 1.572.408c.464.272.828.652 1.092 1.14.264.48.396 1.032.396 1.656l-.012.264ZM73.28 6.372c-.609 0-1.12.196-1.537.588-.407.384-.64.888-.695 1.512h4.475c-.055-.624-.291-1.128-.707-1.512-.408-.392-.92-.588-1.536-.588Zm12.666-.732c.792 0 1.412.228 1.86.684.456.456.684 1.128.684 2.016V12h-.852V8.424c0-.656-.16-1.156-.48-1.5-.312-.344-.756-.516-1.332-.516-.656 0-1.172.204-1.548.612-.376.4-.564.956-.564 1.668V12h-.852V8.424c0-.656-.16-1.156-.48-1.5-.312-.344-.76-.516-1.344-.516-.648 0-1.164.204-1.548.612-.376.4-.564.956-.564 1.668V12h-.852V5.688h.816V6.84c.224-.384.536-.68.936-.888.4-.208.86-.312 1.38-.312.528 0 .984.112 1.368.336.392.224.684.556.876.996A2.43 2.43 0 0 1 84.447 6c.44-.24.94-.36 1.5-.36Zm10.041.048-3.156 7.068c-.256.592-.552 1.012-.888 1.26-.336.248-.74.372-1.212.372-.304 0-.588-.048-.852-.144a1.846 1.846 0 0 1-.684-.432l.396-.636c.32.32.704.48 1.152.48.288 0 .532-.08.732-.24.208-.16.4-.432.576-.816l.276-.612-2.82-6.3h.888l2.376 5.364 2.376-5.364h.84ZM111.215 5.754 105.972 2.5v-.001h-.001l-5.186 3.251V1.407L106 .83l5.215.576v4.347Zm-.004.576-2.085 1.293-3.141-1.967-.006.573 2.685 1.68-.463.288-2.216-1.388-.006.572 1.75 1.095-.413.291-.01.007-1.321-.82-.006.572.868.538-.884.558-5.167-3.233 5.175-3.275 5.24 3.216Zm.004 5.441L106 15.038l-5.215-3.267V7.025l5.193 3.255.008.59-3.562-2.233-.005.573 3.576 2.263.009.605-3.575-2.24-.005.573L106 12.675l3.606-2.272V7.957l1.609-1.011v4.825ZM106 0l-6 .662v11.58L106 16l6-3.759V.662L106 0Z"></path></svg><svg id="ok" viewBox="0 0 20 20"><path fill-rule="evenodd" clip-rule="evenodd" d="M1.4 1.4C0 2.812 0 5.074 0 9.6v.914c0 4.456 0 6.698 1.4 8.086C2.812 20 5.074 20 9.6 20h.913c4.457 0 6.699 0 8.087-1.4 1.4-1.412 1.4-3.674 1.4-8.2v-.913c0-4.457 0-6.699-1.4-8.087C17.188 0 14.926 0 10.4 0h-.914C5.03 0 2.788 0 1.4 1.4Zm8.62 8.797a3.034 3.034 0 0 0 3.028-3.028 3.038 3.038 0 0 0-6.075 0 3.038 3.038 0 0 0 3.046 3.028Zm0-4.28c.688 0 1.25.563 1.25 1.252 0 .689-.562 1.251-1.25 1.251-.69 0-1.252-.562-1.252-1.251-.018-.69.544-1.251 1.251-1.251Zm1.214 6.764a5.729 5.729 0 0 0 1.76-.725.883.883 0 0 0 .271-1.233.883.883 0 0 0-1.233-.272 3.85 3.85 0 0 1-4.08 0 .903.903 0 0 0-1.233.272.904.904 0 0 0 .308 1.215c.544.345 1.143.58 1.76.725L7.1 14.35a.886.886 0 0 0 0 1.251.861.861 0 0 0 .635.254.94.94 0 0 0 .634-.254l1.668-1.668 1.669 1.668a.887.887 0 0 0 1.251 0 .887.887 0 0 0 0-1.251l-1.723-1.668Z"></path></svg><svg id="pinterest" viewBox="0 0 22 22"><path d="M11 0C4.925 0 0 4.925 0 11c0 4.66 2.9 8.644 6.991 10.247-.096-.87-.183-2.21.038-3.16.2-.858 1.29-5.467 1.29-5.467s-.329-.659-.329-1.633c0-1.53.887-2.671 1.99-2.671.94 0 1.392.704 1.392 1.549 0 .944-.6 2.355-.91 3.662-.26 1.095.549 1.988 1.628 1.988 1.955 0 3.458-2.061 3.458-5.037 0-2.634-1.892-4.475-4.595-4.475-3.13 0-4.966 2.347-4.966 4.774 0 .945.364 1.959.818 2.51.09.109.103.204.076.315-.083.348-.269 1.095-.305 1.248-.048.201-.16.244-.368.147-1.374-.64-2.233-2.648-2.233-4.261 0-3.47 2.521-6.657 7.268-6.657 3.816 0 6.782 2.72 6.782 6.353 0 3.791-2.39 6.842-5.708 6.842-1.115 0-2.163-.58-2.522-1.263l-.685 2.615c-.248.955-.919 2.153-1.367 2.883C8.773 21.83 9.866 22 11 22c6.075 0 11-4.925 11-11S17.075 0 11 0Z"></path></svg><svg id="user" viewBox="0 0 16 16"><path fill-rule="evenodd" clip-rule="evenodd" d="M10.7 4a2.7 2.7 0 1 1-5.4 0 2.7 2.7 0 0 1 5.4 0ZM12 4a4 4 0 1 1-8 0 4 4 0 0 1 8 0Zm-8.8 8.3c1.2-1 3-1.6 4.8-1.6 1.8 0 3.6.6 4.8 1.6 1.2 1 1.9 2.4 1.9 3.7H16c0-1.8-.8-3.5-2.3-4.7a8.9 8.9 0 0 0-5.7-2c-2.1 0-4.2.7-5.7 2A6.2 6.2 0 0 0 0 16h1.3c0-1.3.7-2.7 1.9-3.7Z"></path></svg><svg id="vk" viewBox="0 0 20 20"><path fill-rule="evenodd" clip-rule="evenodd" d="M1.406 1.406C0 2.812 0 5.074 0 9.6v.8c0 4.525 0 6.788 1.406 8.194C2.812 20 5.074 20 9.6 20h.8c4.525 0 6.788 0 8.194-1.406C20 17.188 20 14.925 20 10.4v-.8c0-4.526 0-6.788-1.406-8.194C17.188 0 14.925 0 10.4 0h-.8C5.074 0 2.812 0 1.406 1.406Zm1.969 4.677c.108 5.2 2.708 8.325 7.267 8.325h.258v-2.975c1.675.167 2.942 1.392 3.45 2.975h2.367c-.65-2.366-2.359-3.675-3.425-4.175 1.066-.616 2.566-2.116 2.925-4.15h-2.15c-.467 1.65-1.85 3.15-3.167 3.292V6.083H8.75v5.767c-1.333-.333-3.017-1.95-3.092-5.767H3.375Z"></path></svg></svg>